<svg width="65" height="64" viewBox="0 0 65 64" fill="none" xmlns="http://www.w3.org/2000/svg">
<path d="M26.8682 26.848C25.0442 26.848 23.6042 28.448 23.6042 30.4C23.6042 32.352 25.0762 33.952 26.8682 33.952C28.6922 33.952 30.1322 32.352 30.1322 30.4C30.1642 28.448 28.6922 26.848 26.8682 26.848ZM38.5482 26.848C36.7242 26.848 35.2842 28.448 35.2842 30.4C35.2842 32.352 36.7562 33.952 38.5482 33.952C40.3722 33.952 41.8122 32.352 41.8122 30.4C41.8122 28.448 40.3722 26.848 38.5482 26.848Z" fill="#7289DA"/>
<path d="M54.1002 0H11.2202C7.60416 0 4.66016 2.944 4.66016 6.592V49.856C4.66016 53.504 7.60416 56.448 11.2202 56.448H47.5082L45.8122 50.528L49.9082 54.336L53.7802 57.92L60.6602 64V6.592C60.6602 2.944 57.7162 0 54.1002 0ZM41.7482 41.792C41.7482 41.792 40.5962 40.416 39.6362 39.2C43.8282 38.016 45.4282 35.392 45.4282 35.392C44.1162 36.256 42.8682 36.864 41.7482 37.28C40.1482 37.952 38.6122 38.4 37.1082 38.656C34.0362 39.232 31.2202 39.072 28.8202 38.624C26.9962 38.272 25.4282 37.76 24.1162 37.248C23.3802 36.96 22.5802 36.608 21.7802 36.16C21.6842 36.096 21.5882 36.064 21.4922 36C21.4282 35.968 21.3962 35.936 21.3642 35.904C20.7882 35.584 20.4682 35.36 20.4682 35.36C20.4682 35.36 22.0042 37.92 26.0682 39.136C25.1082 40.352 23.9242 41.792 23.9242 41.792C16.8522 41.568 14.1642 36.928 14.1642 36.928C14.1642 26.624 18.7722 18.272 18.7722 18.272C23.3802 14.816 27.7642 14.912 27.7642 14.912L28.0842 15.296C22.3242 16.96 19.6682 19.488 19.6682 19.488C19.6682 19.488 20.3722 19.104 21.5562 18.56C24.9802 17.056 27.7002 16.64 28.8202 16.544C29.0122 16.512 29.1722 16.48 29.3642 16.48C31.3162 16.224 33.5242 16.16 35.8282 16.416C38.8682 16.768 42.1322 17.664 45.4602 19.488C45.4602 19.488 42.9322 17.088 37.4922 15.424L37.9402 14.912C37.9402 14.912 42.3242 14.816 46.9322 18.272C46.9322 18.272 51.5402 26.624 51.5402 36.928C51.5402 36.928 48.8202 41.568 41.7482 41.792Z" fill="#7289DA"/>
</svg>
