<svg width="65" height="64" viewBox="0 0 65 64" fill="none" xmlns="http://www.w3.org/2000/svg">
<path d="M5.14444 47.6667C2.58889 47.6667 0.5 49.7556 0.5 52.3111C0.5 54.8667 2.58889 56.9556 5.14444 56.9556C7.7 56.9556 9.78889 54.8667 9.78889 52.3111C9.78889 49.7556 7.72222 47.6667 5.14444 47.6667Z" fill="#6515DD"/>
<path d="M62.322 7.11116L33.0776 16.4445V7.22227L1.54427 17.2889V44.0223L28.7443 35.3334V44.5112L64.4998 33.1112L54.8109 23.6445L62.322 7.11116ZM28.7443 30.7556L5.89983 38.0445V20.4667L28.7443 13.1778V30.7556ZM56.4109 31.1334L33.0776 38.5778V21.0223L54.5665 14.1556L49.6332 24.5556L56.4109 31.1334Z" fill="#6515DD"/>
</svg>
