<svg width="65" height="64" viewBox="0 0 65 64" fill="none" xmlns="http://www.w3.org/2000/svg">
<g clip-path="url(#clip0_1_603)">
<path d="M63.876 32.7372C63.876 30.5619 63.6997 28.3749 63.3234 26.2349H33.14V38.5575H50.4246C49.7073 42.5318 47.4027 46.0475 44.0281 48.2815V56.2771H54.3401C60.3956 50.7037 63.876 42.473 63.876 32.7372Z" fill="#4285F4"/>
<path d="M33.1399 64.0022C41.7705 64.0022 49.0488 61.1685 54.3518 56.2771L44.0398 48.2815C41.1708 50.2333 37.467 51.3386 33.1517 51.3386C24.8034 51.3386 17.7249 45.7064 15.1851 38.1341H4.54395V46.3766C9.97624 57.1824 21.0407 64.0022 33.1399 64.0022V64.0022Z" fill="#34A853"/>
<path d="M15.1734 38.1341C13.833 34.1598 13.833 29.8563 15.1734 25.882V17.6395H4.54398C0.00530812 26.6816 0.00530812 37.3345 4.54398 46.3766L15.1734 38.1341V38.1341Z" fill="#FBBC04"/>
<path d="M33.1399 12.6658C37.7021 12.5952 42.1115 14.3119 45.4155 17.4631L54.5517 8.32698C48.7666 2.89468 41.0885 -0.0919093 33.1399 0.00215644C21.0407 0.00215644 9.97624 6.82193 4.54395 17.6395L15.1734 25.882C17.7014 18.2979 24.7916 12.6658 33.1399 12.6658V12.6658Z" fill="#EA4335"/>
</g>
<defs>
<clipPath id="clip0_1_603">
<rect width="64" height="64" fill="white" transform="translate(0.5)"/>
</clipPath>
</defs>
</svg>
