<svg width="65" height="64" viewBox="0 0 65 64" fill="none" xmlns="http://www.w3.org/2000/svg">
<path d="M47.8875 26.925C49.35 22.85 53.5625 11.0625 53.5625 7.2875C53.5625 3.9625 51.6 1.175 48.1 1.175C42.525 1.175 37.525 17.6375 35.9625 21.5625C34.75 18 29.075 0 24.075 0C20.1875 0 18.3625 2.8625 18.3625 6.4625C18.3625 10.875 22.6375 22.3125 24.1875 26.7125C23.4 26.425 22.55 26.175 21.6875 26.175C18.7625 26.175 15.65 29.8125 15.65 32.75C15.65 33.8625 16.2625 35.425 16.65 36.4625C12.0375 37.7125 10.2625 40.7875 10.2625 45.425C10.25 54.45 18.8 64 30.825 64C45.575 64 54.75 52.925 54.75 38.6375C54.75 33.25 53.8875 28.3875 47.8875 26.925V26.925ZM43.4625 13.5C43.9625 11.9625 46.1 5.4625 48.1 5.4625C49.175 5.4625 49.4625 6.575 49.4625 7.4625C49.4625 9.85 44.6375 23.0375 43.575 25.9625L39.325 25.2125L43.4625 13.5V13.5ZM22.2875 6.0375C22.2875 4.55 24.1 0.325 28.075 11.925L32.4 24.4625C30.45 24.3 28.9375 24.0875 27.975 24.6375C26.6125 21.0375 22.2875 9.675 22.2875 6.0375V6.0375ZM22 30.5C25.6625 30.5 30.3875 42.325 30.3875 43.925C30.3875 44.5625 29.775 45.35 29.0625 45.35C26.45 45.35 19.45 35.7375 19.45 33.1375C19.4625 32.175 21.0375 30.5 22 30.5V30.5ZM45.0375 53.7875C41.4 57.7875 36.75 59.8625 31.325 59.8625C23.9 59.8625 18.0375 55.7875 15.2125 48.825C13.075 43.4 15.6875 40.2875 17.7875 40.2875C19.2125 40.2875 24.575 47.825 24.575 49.425C24.575 50.0375 23.6125 50.4625 23.1125 50.4625C21.1 50.4625 20.3125 48.525 16.725 44.0375C13.0125 47.75 19.2875 54.9 24.0125 54.9C27.275 54.9 29.4 51.875 28.7625 49.65C29.225 49.65 29.8 49.6875 30.225 49.575C30.3625 52.9625 31.3625 57 35.4375 57.2875C35.4375 57.175 35.6875 56.4 35.6875 56.3625C35.6875 54.1875 34.3625 52.2875 34.3625 50.075C34.3625 46.5375 37.075 43.1125 39.825 41.1125C40.825 40.3625 42.0375 39.9 43.2125 39.475C44.425 39.0125 45.7125 38.475 46.6375 37.55C46.5 36.15 45.925 34.9125 44.525 34.9125C41.0625 34.9125 29.45 35.4125 29.45 29.95C29.45 29.1125 29.4625 28.3125 31.625 28.3125C35.6625 28.3125 45.9125 29.3125 48.9125 31.95C51.175 33.9625 51.95 46.1 45.0375 53.7875V53.7875ZM32.7125 38.0375C33.925 38.425 35.175 38.5375 36.425 38.7875C35.5 39.4625 34.675 40.2875 33.8875 41.175C33.5375 40.1125 33.1125 39.075 32.7125 38.0375V38.0375Z" fill="black"/>
</svg>
