<svg width="65" height="64" viewBox="0 0 65 64" fill="none" xmlns="http://www.w3.org/2000/svg">
<g clip-path="url(#clip0_1_593)">
<path d="M59.7756 0H5.22445C3.97144 0 2.76976 0.497753 1.88376 1.38376C0.997753 2.26976 0.5 3.47144 0.5 4.72445V59.2756C0.5 60.5286 0.997753 61.7302 1.88376 62.6162C2.76976 63.5023 3.97144 64 5.22445 64H59.7756C61.0286 64 62.2302 63.5023 63.1162 62.6162C64.0023 61.7302 64.5 60.5286 64.5 59.2756V4.72445C64.5 3.47144 64.0023 2.26976 63.1162 1.38376C62.2302 0.497753 61.0286 0 59.7756 0ZM19.5756 54.52H9.95334V23.9556H19.5756V54.52ZM14.7578 19.72C13.6663 19.7139 12.6011 19.3845 11.6966 18.7736C10.7921 18.1626 10.0889 17.2974 9.67567 16.2872C9.26244 15.2769 9.15773 14.1669 9.37475 13.0972C9.59177 12.0275 10.1208 11.0461 10.8951 10.2768C11.6694 9.50743 12.6542 8.98471 13.7252 8.77456C14.7963 8.56441 15.9056 8.67625 16.9132 9.09596C17.9208 9.51567 18.7814 10.2244 19.3866 11.1328C19.9917 12.0412 20.3142 13.1085 20.3133 14.2C20.3236 14.9308 20.1867 15.6561 19.9107 16.3328C19.6347 17.0095 19.2253 17.6237 18.7069 18.1388C18.1884 18.654 17.5716 19.0594 16.8931 19.3311C16.2147 19.6027 15.4885 19.735 14.7578 19.72ZM55.0422 54.5467H45.4244V37.8489C45.4244 32.9244 43.3311 31.4044 40.6289 31.4044C37.7756 31.4044 34.9756 33.5556 34.9756 37.9733V54.5467H25.3533V23.9778H34.6067V28.2133H34.7311C35.66 26.3333 38.9133 23.12 43.8778 23.12C49.2467 23.12 55.0467 26.3067 55.0467 35.64L55.0422 54.5467Z" fill="#0A66C2"/>
</g>
<defs>
<clipPath id="clip0_1_593">
<rect width="64" height="64" fill="white" transform="translate(0.5)"/>
</clipPath>
</defs>
</svg>
