<svg width="65" height="64" viewBox="0 0 65 64" fill="none" xmlns="http://www.w3.org/2000/svg">
<path d="M24.8176 0.934191L25.5359 3.84349C22.7051 4.54311 19.9958 5.66484 17.4989 7.171L15.9625 4.59809C18.7108 2.93374 21.6968 1.69824 24.8176 0.934191V0.934191ZM40.1824 0.934191L39.4641 3.84349C42.2949 4.54311 45.0042 5.66484 47.5011 7.171L49.0557 4.59809C46.3002 2.9352 43.3084 1.69986 40.1824 0.934191V0.934191ZM5.09805 15.4534C3.43525 18.2057 2.19988 21.1945 1.43415 24.3177L4.34345 25.0359C5.04307 22.2051 6.1648 19.4958 7.67096 16.999L5.09805 15.4534ZM3.49794 32C3.49772 30.5453 3.60712 29.0926 3.82523 27.6543L0.861385 27.1997C0.379539 30.3787 0.379539 33.6122 0.861385 36.7913L3.82523 36.3458C3.60747 34.9075 3.49806 33.4548 3.49794 32V32ZM49.0375 59.3929L47.5011 56.8291C45.0082 58.3366 42.3016 59.4585 39.4732 60.1566L40.1915 63.0659C43.3085 62.2945 46.2909 61.0562 49.0375 59.3929ZM61.5021 32C61.5019 33.4548 61.3925 34.9075 61.1748 36.3458L64.1386 36.7913C64.6205 33.6122 64.6205 30.3787 64.1386 27.1997L61.1748 27.6543C61.3929 29.0926 61.5023 30.5453 61.5021 32V32ZM63.5659 39.6733L60.6566 38.9551C59.9586 41.7893 58.8368 44.5018 57.329 47.0011L59.902 48.5467C61.5664 45.7919 62.8018 42.7999 63.5659 39.6733V39.6733ZM36.8458 60.6748C33.965 61.1113 31.035 61.1113 28.1542 60.6748L27.7087 63.6387C30.8847 64.1205 34.1153 64.1205 37.2913 63.6387L36.8458 60.6748ZM55.8471 49.2013C54.1191 51.5446 52.0471 53.6135 49.7012 55.3381L51.4832 57.7564C54.067 55.8543 56.3529 53.5776 58.2655 51.0014L55.8471 49.2013ZM49.7012 8.65292C52.0473 10.3808 54.1193 12.4527 55.8471 14.7988L58.2655 12.9987C56.3597 10.4202 54.0799 8.14036 51.5014 6.23457L49.7012 8.65292ZM9.15288 14.7988C10.8807 12.4527 12.9527 10.3808 15.2988 8.65292L13.4986 6.23457C10.9201 8.14036 8.64032 10.4202 6.73453 12.9987L9.15288 14.7988ZM59.902 15.4534L57.329 16.999C58.8366 19.4919 59.9584 22.1984 60.6566 25.0268L63.5659 24.3086C62.8001 21.1883 61.5647 18.2025 59.902 15.4534V15.4534ZM28.1542 3.32527C31.035 2.88882 33.965 2.88882 36.8458 3.32527L37.2913 0.361423C34.1153 -0.120474 30.8847 -0.120474 27.7087 0.361423L28.1542 3.32527ZM10.6894 58.5565L4.49801 59.9929L5.94356 53.8016L3.02518 53.1197L1.57962 59.3111C1.48917 59.6949 1.47529 60.0929 1.53877 60.4821C1.60225 60.8713 1.74185 61.2442 1.94957 61.5794C2.15729 61.9147 2.42907 62.2056 2.74936 62.4357C3.06964 62.6658 3.43215 62.8305 3.81614 62.9204C4.26522 63.0204 4.7308 63.0204 5.17987 62.9204L11.3712 61.493L10.6894 58.5565ZM3.6434 50.4468L6.57088 51.1196L7.57095 46.8284C6.11052 44.3786 5.02277 41.7251 4.34345 38.9551L1.43415 39.6733C2.08855 42.3248 3.07842 44.8819 4.37982 47.2829L3.6434 50.4468ZM17.6444 56.9382L13.3532 57.9382L14.035 60.8657L17.1898 60.1293C19.589 61.4346 22.1467 62.4247 24.7995 63.075L25.5177 60.1657C22.7563 59.4775 20.1122 58.3837 17.6717 56.92L17.6444 56.9382ZM32.5 5.99819C18.1353 6.00728 6.50724 17.6536 6.50724 32.0091C6.51515 36.8987 7.89822 41.6874 10.4984 45.8283L7.99826 56.5018L18.6627 54.0016C30.8181 61.6476 46.8738 58.0019 54.5198 45.8556C62.1658 33.7093 58.5291 17.6536 46.3828 9.99847C42.2246 7.38356 37.4121 5.99686 32.5 5.99819" fill="#3A76F0"/>
</svg>
