<svg width="65" height="64" viewBox="0 0 65 64" fill="none" xmlns="http://www.w3.org/2000/svg">
<g clip-path="url(#clip0_1_600)">
<path d="M63.2253 16.4946C62.8635 15.133 62.1504 13.8904 61.1574 12.891C60.1644 11.8916 58.9263 11.1706 57.5671 10.8C52.5635 9.45459 32.5635 9.45459 32.5635 9.45459C32.5635 9.45459 12.5635 9.45459 7.55984 10.8C6.20062 11.1706 4.96257 11.8916 3.96958 12.891C2.97659 13.8904 2.26349 15.133 1.90166 16.4946C0.563477 21.52 0.563477 32 0.563477 32C0.563477 32 0.563477 42.48 1.90166 47.5055C2.26349 48.8671 2.97659 50.1097 3.96958 51.1091C4.96257 52.1085 6.20062 52.8295 7.55984 53.2C12.5635 54.5455 32.5635 54.5455 32.5635 54.5455C32.5635 54.5455 52.5635 54.5455 57.5671 53.2C58.9263 52.8295 60.1644 52.1085 61.1574 51.1091C62.1504 50.1097 62.8635 48.8671 63.2253 47.5055C64.5635 42.48 64.5635 32 64.5635 32C64.5635 32 64.5635 21.52 63.2253 16.4946Z" fill="#FF0302"/>
<path d="M26.0182 41.5165V22.4837L42.7455 32.0001L26.0182 41.5165Z" fill="#FEFEFE"/>
</g>
<defs>
<clipPath id="clip0_1_600">
<rect width="64" height="64" fill="white" transform="translate(0.5)"/>
</clipPath>
</defs>
</svg>
