<svg width="40" height="41" viewBox="0 0 40 41" fill="none" xmlns="http://www.w3.org/2000/svg">
<g clip-path="url(#clip0_1_626)">
<path d="M39.9809 20.8518C39.9809 19.1746 39.8448 17.9507 39.5503 16.6815H20.3984V24.2515H31.6401C31.4136 26.1327 30.1897 28.9658 27.4698 30.8696L27.4317 31.123L33.4872 35.8141L33.9067 35.856C37.7597 32.2976 39.9809 27.0619 39.9809 20.8518Z" fill="#4285F4"/>
<path d="M20.3984 40.7969C25.9059 40.7969 30.5295 38.9836 33.9067 35.8559L27.4698 30.8695C25.7473 32.0708 23.4355 32.9094 20.3984 32.9094C15.0042 32.9094 10.4259 29.3511 8.7939 24.4328L8.55468 24.4531L2.25812 29.3261L2.17578 29.555C5.53015 36.2184 12.4203 40.7969 20.3984 40.7969Z" fill="#34A853"/>
<path d="M8.7939 24.433C8.36327 23.1637 8.11406 21.8037 8.11406 20.3986C8.11406 18.9933 8.36328 17.6334 8.77124 16.3642L8.75984 16.0939L2.38437 11.1426L2.17578 11.2419C0.793281 14.007 0 17.1122 0 20.3986C0 23.685 0.793281 26.79 2.17578 29.5551L8.7939 24.433Z" fill="#FBBC05"/>
<path d="M20.3984 7.88747C24.2287 7.88747 26.8125 9.542 28.2858 10.9247L34.0426 5.30372C30.507 2.01731 25.9059 0.00012207 20.3984 0.00012207C12.4203 0.00012207 5.53015 4.5784 2.17578 11.2418L8.77125 16.3642C10.4259 11.4459 15.0042 7.88747 20.3984 7.88747Z" fill="#EB4335"/>
</g>
<defs>
<clipPath id="clip0_1_626">
<rect width="40" height="40.9375" fill="white"/>
</clipPath>
</defs>
</svg>
