<svg width="41" height="40" viewBox="0 0 41 40" fill="none" xmlns="http://www.w3.org/2000/svg">
<g clip-path="url(#clip0_1_660)">
<path d="M31.1226 0H9.87256C4.69489 0 0.497559 4.19733 0.497559 9.375V30.625C0.497559 35.8027 4.69489 40 9.87256 40H31.1226C36.3002 40 40.4976 35.8027 40.4976 30.625V9.375C40.4976 4.19733 36.3002 0 31.1226 0Z" fill="url(#paint0_radial_1_660)"/>
<path d="M31.1226 0H9.87256C4.69489 0 0.497559 4.19733 0.497559 9.375V30.625C0.497559 35.8027 4.69489 40 9.87256 40H31.1226C36.3002 40 40.4976 35.8027 40.4976 30.625V9.375C40.4976 4.19733 36.3002 0 31.1226 0Z" fill="url(#paint1_radial_1_660)"/>
<path d="M20.499 4.375C16.2555 4.375 15.7229 4.39359 14.0563 4.46938C12.3929 4.54563 11.2574 4.80891 10.264 5.19531C9.23615 5.59438 8.36443 6.12828 7.496 6.99703C6.62678 7.86562 6.09287 8.73734 5.69256 9.76469C5.30506 10.7584 5.04146 11.8944 4.96662 13.557C4.89209 15.2238 4.87256 15.7566 4.87256 20.0002C4.87256 24.2438 4.89131 24.7747 4.96693 26.4412C5.0435 28.1047 5.30678 29.2402 5.69287 30.2336C6.09225 31.2614 6.62615 32.1331 7.4949 33.0016C8.36318 33.8708 9.2349 34.4059 10.2619 34.805C11.2562 35.1914 12.3918 35.4547 14.0549 35.5309C15.7216 35.6067 16.2538 35.6253 20.4971 35.6253C24.741 35.6253 25.2719 35.6067 26.9385 35.5309C28.6019 35.4547 29.7387 35.1914 30.7329 34.805C31.7602 34.4059 32.6307 33.8708 33.4988 33.0016C34.368 32.1331 34.9018 31.2614 35.3022 30.2341C35.6863 29.2402 35.9501 28.1044 36.0282 26.4416C36.103 24.775 36.1226 24.2438 36.1226 20.0002C36.1226 15.7566 36.103 15.2241 36.0282 13.5573C35.9501 11.8939 35.6863 10.7586 35.3022 9.76516C34.9018 8.73734 34.368 7.86562 33.4988 6.99703C32.6297 6.12797 31.7605 5.59406 30.7319 5.19547C29.7358 4.80891 28.5997 4.54547 26.9363 4.46938C25.2696 4.39359 24.739 4.375 20.4941 4.375H20.499ZM19.0972 7.19078C19.5133 7.19016 19.9776 7.19078 20.499 7.19078C24.671 7.19078 25.1654 7.20578 26.8129 7.28063C28.3363 7.35031 29.1632 7.60484 29.714 7.81875C30.4432 8.10188 30.963 8.44047 31.5096 8.9875C32.0565 9.53438 32.3949 10.0552 32.6788 10.7844C32.8927 11.3344 33.1476 12.1613 33.2169 13.6847C33.2918 15.3319 33.308 15.8266 33.308 19.9966C33.308 24.1666 33.2918 24.6614 33.2169 26.3084C33.1472 27.8319 32.8927 28.6587 32.6788 29.2089C32.3957 29.9381 32.0565 30.4573 31.5096 31.0039C30.9627 31.5508 30.4435 31.8892 29.714 32.1725C29.1638 32.3873 28.3363 32.6413 26.8129 32.7109C25.1657 32.7858 24.671 32.802 20.499 32.802C16.3268 32.802 15.8322 32.7858 14.1852 32.7109C12.6618 32.6406 11.8349 32.3861 11.2837 32.1722C10.5546 31.8889 10.0337 31.5505 9.48678 31.0036C8.9399 30.4567 8.60146 29.9372 8.31756 29.2077C8.10365 28.6575 7.84881 27.8306 7.77943 26.3072C7.70459 24.66 7.68959 24.1653 7.68959 19.9927C7.68959 15.8202 7.70459 15.328 7.77943 13.6808C7.84912 12.1573 8.10365 11.3305 8.31756 10.7797C8.60084 10.0505 8.9399 9.52969 9.48693 8.98281C10.0338 8.43594 10.5546 8.09734 11.2838 7.81359C11.8346 7.59875 12.6618 7.34484 14.1852 7.27484C15.6266 7.20969 16.1852 7.19016 19.0972 7.18687V7.19078ZM28.8396 9.78516C27.8044 9.78516 26.9646 10.6242 26.9646 11.6595C26.9646 12.6947 27.8044 13.5345 28.8396 13.5345C29.8747 13.5345 30.7146 12.6947 30.7146 11.6595C30.7146 10.6244 29.8747 9.78453 28.8396 9.78453V9.78516ZM20.499 11.9759C16.0677 11.9759 12.4749 15.5688 12.4749 20.0002C12.4749 24.4316 16.0677 28.0227 20.499 28.0227C24.9304 28.0227 28.5219 24.4316 28.5219 20.0002C28.5219 15.5689 24.9301 11.9759 20.4987 11.9759H20.499ZM20.499 14.7917C23.3754 14.7917 25.7074 17.1234 25.7074 20.0002C25.7074 22.8766 23.3754 25.2086 20.499 25.2086C17.6224 25.2086 15.2907 22.8766 15.2907 20.0002C15.2907 17.1234 17.6224 14.7917 20.499 14.7917Z" fill="white"/>
</g>
<defs>
<radialGradient id="paint0_radial_1_660" cx="0" cy="0" r="1" gradientUnits="userSpaceOnUse" gradientTransform="translate(11.1226 43.0808) rotate(-90) scale(39.643 36.8711)">
<stop stop-color="#FFDD55"/>
<stop offset="0.1" stop-color="#FFDD55"/>
<stop offset="0.5" stop-color="#FF543E"/>
<stop offset="1" stop-color="#C837AB"/>
</radialGradient>
<radialGradient id="paint1_radial_1_660" cx="0" cy="0" r="1" gradientUnits="userSpaceOnUse" gradientTransform="translate(-6.2026 2.88141) rotate(78.681) scale(17.7206 73.045)">
<stop stop-color="#3771C8"/>
<stop offset="0.128" stop-color="#3771C8"/>
<stop offset="1" stop-color="#6600FF" stop-opacity="0"/>
</radialGradient>
<clipPath id="clip0_1_660">
<rect width="40" height="40" fill="white" transform="translate(0.497559)"/>
</clipPath>
</defs>
</svg>
