<svg width="41" height="40" viewBox="0 0 41 40" fill="none" xmlns="http://www.w3.org/2000/svg">
<g clip-path="url(#clip0_1_651)">
<path d="M8.9102 25.2062C8.9102 27.5237 7.03724 29.3969 4.71974 29.3969C2.40224 29.3969 0.529266 27.5237 0.529266 25.2062C0.529266 22.8889 2.40224 21.0159 4.71989 21.0159H8.91005V25.2064L8.9102 25.2062ZM11.0055 25.2062C11.0055 22.8889 12.8785 21.0159 15.196 21.0159C17.5135 21.0159 19.3865 22.8889 19.3865 25.2064V35.6825C19.3865 38 17.5135 39.8731 15.1958 39.8731C12.8786 39.8731 11.0055 38 11.0055 35.6825V25.2062Z" fill="#E01E5A"/>
<path d="M15.196 8.38094C12.8785 8.38094 11.0054 6.50797 11.0054 4.19047C11.0054 1.87297 12.8787 0 15.196 0C17.5133 0 19.3865 1.87297 19.3865 4.19047V8.38109H15.1958L15.196 8.38094ZM15.196 10.508C17.5135 10.508 19.3865 12.3809 19.3865 14.6984C19.3865 17.0159 17.5135 18.8889 15.1958 18.8889H4.68818C2.37053 18.8889 0.497559 17.0159 0.497559 14.6983C0.497559 12.3811 2.37053 10.508 4.68803 10.508H15.196Z" fill="#36C5F0"/>
<path d="M31.9897 14.6984C31.9897 12.3809 33.8627 10.5078 36.1801 10.5078C38.4976 10.5078 40.3707 12.3809 40.3707 14.6984C40.3707 17.0159 38.4976 18.8889 36.1801 18.8889H31.9897V14.6984ZM29.8944 14.6984C29.8944 17.0159 28.0213 18.8889 25.7038 18.8889C23.3865 18.8889 21.5135 17.0159 21.5135 14.6983V4.19063C21.5135 1.87297 23.3865 0 25.7038 0C28.0211 0 29.8943 1.87297 29.8943 4.19047V14.6983L29.8944 14.6984Z" fill="#2EB67D"/>
<path d="M25.7038 31.4922C28.0213 31.4922 29.8944 33.3651 29.8944 35.6825C29.8944 38 28.0213 39.8731 25.7038 39.8731C23.3865 39.8731 21.5135 38 21.5135 35.6825V31.4922H25.7038ZM25.7038 29.3969C23.3865 29.3969 21.5135 27.5237 21.5135 25.2062C21.5135 22.8889 23.3865 21.0159 25.704 21.0159H36.2118C38.5293 21.0159 40.4024 22.8889 40.4024 25.2064C40.4024 27.5237 38.5293 29.3969 36.2118 29.3969H25.7038Z" fill="#ECB22E"/>
</g>
<defs>
<clipPath id="clip0_1_651">
<rect width="40" height="40" fill="white" transform="translate(0.497559)"/>
</clipPath>
</defs>
</svg>
