<svg width="50" height="40" viewBox="0 0 50 40" fill="none" xmlns="http://www.w3.org/2000/svg">
<g clip-path="url(#clip0_1_644)">
<path d="M49.4976 4.87072C47.6629 5.6835 45.7169 6.217 43.7242 6.4535C45.7998 5.20948 47.3935 3.23952 48.1439 0.892346C46.1708 2.06323 44.0121 2.88819 41.7609 3.33158C39.9273 1.37809 37.315 0.157227 34.4237 0.157227C28.8723 0.157227 24.3715 4.6579 24.3715 10.2089C24.3715 10.9968 24.4605 11.7639 24.6318 12.4998C16.2777 12.0805 8.87099 8.07876 3.9131 1.99723C3.04803 3.48182 2.55233 5.20871 2.55233 7.05062C2.55233 10.5381 4.32707 13.6146 7.0241 15.4173C5.42783 15.3673 3.86668 14.9362 2.47099 14.1599C2.47042 14.202 2.47042 14.2441 2.47042 14.2864C2.47042 19.1567 5.9353 23.2194 10.5336 24.1429C9.05336 24.5454 7.50071 24.6044 5.99425 24.3151C7.27329 28.3086 10.9856 31.2146 15.3841 31.296C11.9439 33.9919 7.60956 35.599 2.90028 35.599C2.08879 35.599 1.28879 35.5513 0.50238 35.4585C4.9508 38.3105 10.2344 39.9746 15.911 39.9746C34.4004 39.9746 44.5108 24.6577 44.5108 11.3746C44.5108 10.9387 44.5012 10.5052 44.4817 10.0742C46.4496 8.65155 48.1482 6.8895 49.4976 4.87072Z" fill="#55ACEE"/>
</g>
<defs>
<clipPath id="clip0_1_644">
<rect width="48.9952" height="40" fill="white" transform="translate(0.50238)"/>
</clipPath>
</defs>
</svg>
