<svg width="41" height="40" viewBox="0 0 41 40" fill="none" xmlns="http://www.w3.org/2000/svg">
<g clip-path="url(#clip0_1_636)">
<path d="M31.1274 0H9.87738C4.69971 0 0.50238 4.19733 0.50238 9.375V30.625C0.50238 35.8027 4.69971 40 9.87738 40H31.1274C36.305 40 40.5024 35.8027 40.5024 30.625V9.375C40.5024 4.19733 36.305 0 31.1274 0Z" fill="#4353FF"/>
<path d="M26.925 16.1619C26.925 16.1619 24.7664 22.9247 24.6069 23.4989C24.5432 22.9353 22.9694 10.7812 22.9694 10.7812C19.2902 10.7812 17.3336 13.397 16.2914 16.1619C16.2914 16.1619 13.665 22.9459 13.4524 23.5095C13.4418 22.9778 13.0483 16.2256 13.0483 16.2256C12.8249 12.8334 9.73051 10.7812 7.22113 10.7812L10.2411 29.1878C14.0903 29.1772 16.1639 26.572 17.2485 23.7967C17.2485 23.7967 19.556 17.81 19.6518 17.5442C19.673 17.7994 21.3105 29.1878 21.3105 29.1878C25.1705 29.1878 27.2547 26.7528 28.3711 24.0837L33.7836 10.7812C29.9661 10.7812 27.9564 13.3864 26.925 16.1619Z" fill="white"/>
</g>
<defs>
<clipPath id="clip0_1_636">
<rect width="40" height="40" fill="white" transform="translate(0.50238)"/>
</clipPath>
</defs>
</svg>
