<svg width="41" height="40" viewBox="0 0 41 40" fill="none" xmlns="http://www.w3.org/2000/svg">
<g clip-path="url(#clip0_1_669)">
<path fill-rule="evenodd" clip-rule="evenodd" d="M0.497563 20C0.496917 23.7557 1.5538 27.4358 3.54721 30.6188C5.54063 33.8019 8.39003 36.3593 11.7692 37.9983L2.22923 11.86C1.08585 14.4207 0.495774 17.194 0.497563 19.9984M33.9976 18.99C33.9976 16.5184 33.1092 14.8067 32.3476 13.475C31.3359 11.825 30.3842 10.4317 30.3842 8.78335C30.3842 6.94502 31.7776 5.23335 33.7426 5.23335C33.8309 5.23335 33.9159 5.24502 34.0009 5.25002C30.3181 1.86746 25.498 -0.00655965 20.4976 1.72528e-05C13.5092 1.72528e-05 7.36423 3.58502 3.7859 9.01335C4.2559 9.03002 4.69923 9.03668 5.07423 9.03668C7.1659 9.03668 10.4042 8.78335 10.4042 8.78335C11.4809 8.72002 11.6092 10.305 10.5309 10.4317C10.5309 10.4317 9.44756 10.5584 8.24256 10.6217L15.5259 32.285L19.9026 19.1583L16.7876 10.6234C16.0859 10.5795 15.3856 10.5156 14.6876 10.4317C13.6109 10.3684 13.7376 8.72002 14.8159 8.78335C14.8159 8.78335 18.1192 9.03835 20.0826 9.03835C22.1759 9.03835 25.4142 8.78335 25.4142 8.78335C26.4926 8.72002 26.6192 10.305 25.5409 10.4317C25.5409 10.4317 24.4576 10.5584 23.2526 10.6217L30.4809 32.12L32.4759 25.455C33.3392 22.6884 33.9976 20.7017 33.9976 18.99ZM20.8476 21.7484L14.8476 39.1833C18.876 40.371 23.1764 40.2591 27.1376 38.8633C27.0829 38.7757 27.0356 38.6837 26.9959 38.5883L20.8476 21.75V21.7484ZM38.0476 10.4034C38.1326 11.0417 38.1809 11.7234 38.1809 12.46C38.1809 14.4883 37.8009 16.77 36.6609 19.6234L30.5509 37.285C33.5769 35.5268 36.0883 33.005 37.8339 29.9716C39.5794 26.9382 40.4979 23.4998 40.4976 20C40.4976 16.5233 39.6092 13.2534 38.0476 10.4034Z" fill="black"/>
</g>
<defs>
<clipPath id="clip0_1_669">
<rect width="40" height="40" fill="white" transform="translate(0.497559)"/>
</clipPath>
</defs>
</svg>
